Coordinates
version=1
nRows=26
nColumns=24
inDegrees=yes

Units are S.I. units (second, meters, Newtons, ...)
Angles are in degrees.

endheader
time	pelvis_tilt	pelvis_list	pelvis_rotation	pelvis_tx	pelvis_ty	pelvis_tz	hip_flexion_r	hip_adduction_r	hip_rotation_r	knee_angle_r	ankle_angle_r	subtalar_angle_r	mtp_angle_r	hip_flexion_l	hip_adduction_l	hip_rotation_l	knee_angle_l	ankle_angle_l	subtalar_angle_l	mtp_angle_l	lumbar_extension	lumbar_bending	lumbar_rotation
      1.51500000	    -10.40779052	     -1.12000850	     -0.36055388	     -0.03174254	      1.27680549	     -0.89732666	     35.03516067	      5.37701720	      6.10415620	    -33.07096396	      1.07765961	    -22.33807865	      3.44430749	     -0.46472984	      6.04232697	      5.90255418	      1.83217276	      5.29832325	    -11.83069294	      3.21008508	      2.74841741	      1.65844880	     -0.87294012
      1.52000000	    -10.46326086	     -1.11919221	      0.00772144	     -0.02681898	      1.27597625	     -0.89776012	     35.32692301	      5.12285881	      6.14440873	    -31.56671867	      0.99973656	    -22.49655003	      3.18357157	     -0.66322096	      6.07980352	      6.78445083	      1.64514793	      5.35322861	    -12.73631653	      3.17009542	      2.68450713	      1.63819564	     -1.24897006
      1.52500000	    -10.52112214	     -1.11471430	      0.38608549	     -0.02189007	      1.27512860	     -0.89816786	     35.60166044	      4.84388631	      6.15208072	    -30.05160417	      0.97576021	    -22.49962716	      2.97547967	     -0.82732731	      6.11827861	      7.56776592	      1.39121402	      5.60117203	    -13.26475847	      3.19860082	      2.62191819	      1.61031777	     -1.65786493
      1.53000000	    -10.57006982	     -1.10652803	      0.77034975	     -0.01697776	      1.27428261	     -0.89858361	     35.83386147	      4.54678176	      6.14923403	    -28.50109447	      0.96595098	    -22.45751674	      2.73644264	     -0.97935725	      6.16590960	      8.33368697	      1.09674401	      5.82780269	    -13.82905629	      3.21336430	      2.54620517	      1.57754285	     -2.03878492
      1.53500000	    -10.62053123	     -1.09774812	      1.15011759	     -0.01205472	      1.27341444	     -0.89896921	     36.03988299	      4.24243250	      6.13243950	    -26.92520598	      0.95086505	    -22.38363150	      2.60134408	     -1.09437565	      6.21672464	      9.00387786	      0.72463472	      6.20998874	    -14.13807613	      3.23880057	      2.47878017	      1.54093118	     -2.40152423
      1.54000000	    -10.65764207	     -1.08937029	      1.54441615	     -0.00710081	      1.27254867	     -0.89942791	     36.18119049	      3.91459161	      6.10654952	    -25.30323688	      1.01857694	    -22.14372291	      2.22412314	     -1.27385893	      6.26982916	      9.80338687	      0.45648151	      6.30748049	    -14.91542427	      3.24855010	      2.39561453	      1.52537099	     -2.78939485
      1.54500000	    -10.72484965	     -1.06777071	      1.92505202	     -0.00210818	      1.27163635	     -0.89977504	     36.31793242	      3.58777039	      6.11723739	    -23.64130043	      0.98770079	    -21.97261694	      2.10258838	     -1.37105937	      6.33383738	     10.43142782	      0.07293025	      6.69643972	    -15.13652365	      3.29220704	      2.35394315	      1.47744035	     -3.16334220
      1.55000000	    -10.74762389	     -1.05614928	      2.32027269	      0.00297833	      1.27076022	     -0.90018684	     36.32893595	      3.24521743	      6.09993680	    -21.89491132	      1.02036041	    -21.63001088	      1.80652979	     -1.57595164	      6.38329784	     11.15309291	     -0.20027991	      6.85414567	    -15.68511324	      3.33466816	      2.27532510	      1.45740917	     -3.59821743
      1.55500000	    -10.79320207	     -1.02760963	      2.71983263	      0.00810154	      1.26982551	     -0.90055907	     36.31171575	      2.88311486	      6.11453625	    -20.09288942	      0.95894454	    -21.30533856	      1.61850014	     -1.71942126	      6.45746509	     11.78754738	     -0.55774750	      7.13956939	    -16.05403821	      3.40101686	      2.22779591	      1.40968243	     -3.98439569
      1.56000000	    -10.84943471	     -0.97853064	      3.12092683	      0.01330788	      1.26883481	     -0.90089916	     36.25359435	      2.49584048	      6.13508745	    -18.24668171	      0.81143529	    -20.97476071	      1.53526149	     -1.83902686	      6.55612960	     12.37637988	     -0.96175767	      7.47657374	    -16.30291169	      3.44925134	      2.20808991	      1.32990042	     -4.34305294
      1.56500000	    -10.90000380	     -0.90703038	      3.52543888	      0.01861051	      1.26780638	     -0.90121742	     36.14685277	      2.08193998	      6.16620644	    -16.39428278	      0.65793377	    -20.55149914	      1.46355440	     -1.99504331	      6.67346131	     12.97015709	     -1.32414026	      7.74791359	    -16.59701477	      3.50036891	      2.19040310	      1.22783323	     -4.74030950
      1.57000000	    -10.95270342	     -0.80772001	      3.92583196	      0.02398581	      1.26671183	     -0.90151171	     36.03714833	      1.64218218	      6.18910712	    -14.60556729	      0.51835525	    -20.02025152	      1.40410034	     -2.16519409	      6.81978573	     13.54850704	     -1.67184649	      7.98689228	    -16.91992438	      3.56496503	      2.18326690	      1.09627059	     -5.13250763
      1.57500000	    -10.99742124	     -0.68185812	      4.30225963	      0.02942907	      1.26559137	     -0.90178291	     35.93761064	      1.18540614	      6.17683935	    -12.93303137	      0.48412742	    -19.18854071	      1.30797860	     -2.37316073	      6.99337517	     14.12816201	     -1.97919421	      8.10562626	    -17.45453995	      3.70560813	      2.16803866	      0.94526613	     -5.51581048
      1.58000000	    -11.13166262	     -0.53686541	      4.64184749	      0.03495344	      1.26434360	     -0.90191447	     35.94260805	      0.75040577	      6.26933758	    -11.34242398	      0.28828340	    -18.63741586	      1.29270910	     -2.45058179	      7.19071366	     14.56584348	     -2.37937537	      8.42328544	    -17.59482804	      3.77477270	      2.26878783	      0.75459176	     -5.83631365
      1.58500000	    -11.18835357	     -0.39117345	      4.99722059	      0.04053619	      1.26318096	     -0.90209663	     35.88454313	      0.29724850	      6.20494139	     -9.89687458	      0.30577360	    -17.63626726	      1.21295297	     -2.65355429	      7.37802340	     15.04252599	     -2.70501086	      8.59250602	    -17.91643513	      3.92296165	      2.27869231	      0.57979666	     -6.20306727
      1.59000000	    -11.32318817	     -0.23729462	      5.30701920	      0.04620104	      1.26193102	     -0.90215621	     35.92426101	     -0.11850256	      6.24672810	     -8.55311993	      0.19332525	    -16.88212587	      1.13808322	     -2.75759313	      7.57683903	     15.42122181	     -3.07835353	      8.84940751	    -18.06063194	      4.03983365	      2.38703523	      0.38379036	     -6.51298126
      1.59500000	    -11.44801162	     -0.08818017	      5.59340702	      0.05194766	      1.26070014	     -0.90217055	     35.97024118	     -0.50816117	      6.26034984	     -7.33899826	      0.11026986	    -16.04306969	      1.05604439	     -2.87523611	      7.76750783	     15.72880346	     -3.46099743	      9.10143121	    -18.17231290	      4.15482338	      2.49425694	      0.19665371	     -6.79223204
      1.60000000	    -11.55460500	      0.05901713	      5.84505461	      0.05776342	      1.25949551	     -0.90211837	     36.02237412	     -0.86168783	      6.25280426	     -6.27161810	      0.05717957	    -15.12577603	      0.92705821	     -3.01016950	      7.95269466	     15.94009226	     -3.85986059	      9.34044737	    -18.26529583	      4.29636047	      2.58625624	      0.01640656	     -7.01454083
      1.60500000	    -11.71141045	      0.19594967	      6.07653393	      0.06366971	      1.25825749	     -0.90199977	     36.12591102	     -1.17840210	      6.33480403	     -5.29517547	     -0.14261786	    -14.51125216	      0.87669624	     -3.09319565	      8.12478538	     16.12754164	     -4.26493551	      9.59819595	    -18.28957368	      4.37237940	      2.74716076	     -0.16036318	     -7.22665502
      1.61000000	    -11.83549221	      0.34257273	      6.28970159	      0.06962740	      1.25707271	     -0.90183325	     36.25660725	     -1.48006539	      6.33130022	     -4.55642822	     -0.14800094	    -13.57577348	      0.71185252	     -3.22086341	      8.29379643	     16.26915573	     -4.65930600	      9.84831542	    -18.20937874	      4.53984509	      2.86859839	     -0.33942036	     -7.45578886
      1.61500000	    -11.97697977	      0.46086639	      6.47832977	      0.07567287	      1.25590016	     -0.90161684	     36.39062768	     -1.72417600	      6.39488370	     -3.88721610	     -0.32628556	    -12.97245022	      0.60658359	     -3.30806873	      8.43710855	     16.34455037	     -5.10185196	     10.08201218	    -18.17268591	      4.64221366	      3.02728896	     -0.48995446	     -7.61451534
      1.62000000	    -12.12636024	      0.57907826	      6.65232811	      0.08177111	      1.25475386	     -0.90135715	     36.57582854	     -1.94575507	      6.44127742	     -3.41346063	     -0.44437238	    -12.29865579	      0.46373372	     -3.38081841	      8.57535520	     16.38163815	     -5.55919758	     10.32708276	    -18.03543387	      4.78921847	      3.19711505	     -0.63831846	     -7.78004638
      1.62500000	    -12.24528420	      0.69536678	      6.80630172	      0.08790152	      1.25366338	     -0.90103761	     36.76559924	     -2.13342815	      6.49417081	     -3.12291352	     -0.53745026	    -11.64017861	      0.23513911	     -3.47770475	      8.70012502	     16.36493538	     -6.03333533	     10.56710728	    -17.80501597	      4.97720386	      3.32776951	     -0.77833726	     -7.93367809
      1.63000000	    -12.36908644	      0.78177655	      6.94566577	      0.09410137	      1.25262756	     -0.90068570	     36.95414724	     -2.26948369	      6.58220555	     -2.92261081	     -0.79148677	    -11.21661667	      0.12557771	     -3.56159075	      8.79172976	     16.34099376	     -6.51809782	     10.76404162	    -17.69546538	      5.09115783	      3.47824362	     -0.88349963	     -8.06674454
      1.63500000	    -12.49453294	      0.87198592	      7.08832879	      0.10029631	      1.25162934	     -0.90029619	     37.20260329	     -2.39346007	      6.65032079	     -2.94912718	     -0.91889049	    -10.74793253	     -0.11603900	     -3.59596531	      8.88516826	     16.26854117	     -7.09112984	     10.98332531	    -17.34725992	      5.32178354	      3.61892194	     -0.99744857	     -8.20487312
      1.64000000	    -12.60955126	      0.92292286	      7.23735702	      0.10659244	      1.25071392	     -0.89993797	     37.38989481	     -2.48049055	      6.74461294	     -2.99071481	     -1.17258369	    -10.43766307	     -0.25772028	     -3.63806955	      8.93576697	     16.22179061	     -7.66643796	     11.14770275	    -17.14510747	      5.48018822	      3.77039890	     -1.05981686	     -8.35871983
